<?xml version="1.0" encoding="UTF-8" standalone="no"?>
<svg viewBox="0 0 390 75" xml:space="preserve" xmlns:xlink="http://www.w3.org/1999/xlink" xmlns="http://www.w3.org/2000/svg">
   <style>
      @media (prefers-color-scheme: dark) { .pref *{ fill: #fff; } }
   </style>
   <g class="pref">
      <path d="M367.202 12.541a4.498 4.498 0 0 1 4.498 4.498v35.718c0 .903.641 1.732 1.538 1.834.33.038.646-.013.924-.137a4 4 0 0 1 5.508 3.723c0 2.225-1.901 4.01-4 4.01h-3.965a9 9 0 0 1-9-9V17.04a4.495 4.495 0 0 1 4.497-4.498zM345.163 28.296c-3.236 0-5.993.422-8.056.889a3.926 3.926 0 0 0-2.884 5.004c.615 1.956 2.627 3.093 4.628 2.645 1.321-.296 2.88-.541 4.425-.541 3.971 0 6.166 1.652 6.166 5.292v9.583c0 1.575-1.32 2.853-2.896 2.853h-7.336a1.985 1.985 0 0 1-1.927-2.456 875.46 875.46 0 0 1 1.799-5.291c.724-2.035-.003-4.392-1.903-5.472-2.318-1.318-5.458-.267-6.318 2.23 0 0-1.92 5.766-2.005 6.01-2.216 6.343 2.48 13.255 9.372 13.255h7.997c6.681 0 12.097-5.516 12.097-12.197V41.58c.001-6.905-5.386-13.283-13.159-13.283zM312.372 51.519c.295.934 1.617.935 1.913.001l6.355-20.081c.757-2.387 3.273-3.698 5.622-2.927 2.347.771 3.635 3.332 2.877 5.72l-7.032 21.455c-2.777 8.474-14.765 8.473-17.542-.001l-7.03-21.454c-.758-2.388.531-4.949 2.877-5.72 2.349-.771 4.864.54 5.622 2.927zM269.756 33.155c0-.275.023-.556.071-.841.342-2.02 2.024-3.641 4.053-3.924 2.381-.332 4.02.943 4.971 2.563l.243.442c.354.588.849 1.048 1.698 1.048.322 0 .598-.069.838-.187l6.532-3.066a4.015 4.015 0 0 1 3.447 7.254l-10.845 5.253a3.502 3.502 0 0 0-1.98 3.153v12.672a4.517 4.517 0 1 1-9.034 0V34.086Z"/>
      <use xlink:href="#a" transform="translate(112.444)"/>
      <path d="M229.637 36.785a4.01 4.01 0 0 0 4.009-4.009 4.048 4.048 0 0 0-4.036-4.036h-6.945a1 1 0 0 1-1-1V17.236c0-2.349-1.717-4.447-4.056-4.67a4.499 4.499 0 0 0-4.94 4.477v10.698a1 1 0 0 1-1 1h-2.983a4.008 4.008 0 0 0-4.008 4.009c0 2.215 1.796 4.036 4.011 4.036l2.973-.019a1 1 0 0 1 1.006 1v15.42a9 9 0 0 0 9 9h3.965c2.099 0 4-1.785 4-4.01a4 4 0 0 0-5.508-3.724 1.77 1.77 0 0 1-.924.137c-.897-.103-1.538-.932-1.538-1.834v-14.97a1 1 0 0 1 1-1z"/>
      <path d="M203.378 41.82c0-8.456-6.645-13.561-15.923-13.561l-4.423.001c-6.347.001-11.339 4.683-11.339 11.03l-.018 18.272c0 2.473 2.035 4.478 4.509 4.478a4.478 4.478 0 0 0 4.478-4.478l-.017-18.645a2.626 2.626 0 0 1 2.626-2.626h4.213c4.433 0 6.954 2.286 6.954 6.108l.004 15.163a4.478 4.478 0 0 0 8.956 0zM167.293 17.491a4.851 4.851 0 0 0-5.001-4.849c-2.655.08-4.702 2.396-4.702 5.053v39.513a4.852 4.852 0 0 0 9.704 0V17.491Z"/>
      <path d="M145.64 53.69c-1.356.304-4.232.555-6.502.555-5.835 0-7.332-2.719-7.332-6.036v-6.533c0-2.824 2.311-5.135 5.135-5.135h5.334a2.025 2.025 0 1 1 0 4.05h-1.951a4.556 4.556 0 0 0 0 9.112h2.136c5.89 0 10.943-4.608 11.051-10.498.11-6-4.721-10.899-10.696-10.899h-6.901c-7.373 0-13.35 5.977-13.35 13.35v7.163c0 7.683 5.682 13.64 15.216 13.64 3.97 0 7.532-.433 9.651-.913a4.03 4.03 0 0 0 2.961-5.139c-.631-2.009-2.697-3.177-4.752-2.717z" id="a"/>
      <path d="M118.183 41.854c0-8.452-6.639-13.556-15.911-13.561h-.646c-2.734 0-5.193.874-7.11 2.372-.646.505-1.517.578-2.214.148-2.652-1.633-6.037-2.52-9.883-2.521H80.78c-6.347.001-11.235 4.683-11.235 11.03l-.005 18.047c0 2.339 1.71 4.428 4.038 4.65a4.479 4.479 0 0 0 4.918-4.457V38.95a2.626 2.626 0 0 1 2.626-2.626h1.318c4.433 0 6.954 2.286 6.954 6.108v14.937c0 2.339 1.708 4.428 4.037 4.65a4.479 4.479 0 0 0 4.918-4.457l-.006-18.612a2.626 2.626 0 0 1 2.626-2.626h1.318c4.433 0 6.954 2.286 6.954 6.108v15.104c0 2.339 1.714 4.261 4.042 4.483a4.479 4.479 0 0 0 4.918-4.457z"/>
      <path d="M53.447 16.373a4.467 4.467 0 0 0-4.467 4.469 4.467 4.467 0 1 0 4.467-4.469zm-.002 11.879a4.497 4.497 0 0 0-4.498 4.496v20.44a9 9 0 0 0 9 9h3.965c2.1 0 4-1.785 4-4.01a3.998 3.998 0 0 0-5.506-3.723 1.77 1.77 0 0 1-.924.137c-.897-.103-1.539-.932-1.539-1.834v-20.01a4.497 4.497 0 0 0-4.498-4.496z"/>
      <path d="M42.25 13.125H14.57a4.24 4.24 0 0 0 0 8.478h6.403l.013.062a2.568 2.568 0 0 1 2.568 2.568h.005V57.21a4.852 4.852 0 0 0 9.704 0V24.233h.005a2.568 2.568 0 0 1 2.568-2.568l.013-.062h6.403a4.24 4.24 0 1 0-.002-8.478z"/>
   </g>
</svg>
