<?xml version="1.0" encoding="UTF-8" standalone="no"?>
<!-- Generator: Adobe Illustrator 21.0.0, SVG Export Plug-In . SVG Version: 6.00 Build 0)  -->

<svg
   version="1.1"
   id="Layer_1"
   x="0px"
   y="0px"
   viewBox="0 0 390 75"
   style="enable-background:new 0 0 390 75;"
   xml:space="preserve"
   sodipodi:docname="time_interval_logo.svg"
   inkscape:version="1.4 (e7c3feb100, 2024-10-09)"
   xmlns:inkscape="http://www.inkscape.org/namespaces/inkscape"
   xmlns:sodipodi="http://sodipodi.sourceforge.net/DTD/sodipodi-0.dtd"
   xmlns:xlink="http://www.w3.org/1999/xlink"
   xmlns="http://www.w3.org/2000/svg"
   xmlns:svg="http://www.w3.org/2000/svg"><defs
   id="defs14">
	
	
	
	
	
	
	
	
	
	
	
	

		
	
		
	
		
	
		
	
		
	
		
	
		
	
		
	
		
	
			
			
		
			
		</defs><sodipodi:namedview
   id="namedview14"
   pagecolor="#ffffff"
   bordercolor="#cccccc"
   borderopacity="1"
   inkscape:showpageshadow="0"
   inkscape:pageopacity="1"
   inkscape:pagecheckerboard="0"
   inkscape:deskcolor="#d1d1d1"
   showgrid="false"
   inkscape:zoom="1.9158232"
   inkscape:cx="217.13903"
   inkscape:cy="-36.015849"
   inkscape:window-width="1920"
   inkscape:window-height="952"
   inkscape:window-x="0"
   inkscape:window-y="32"
   inkscape:window-maximized="1"
   inkscape:current-layer="Layer_1" />
<path
   d="m 367.202,12.541 c 2.484,0 4.498,2.014 4.498,4.498 v 35.7175 c 0,0.903 0.641,1.732 1.538,1.834 0.33,0.038 0.646,-0.013 0.924,-0.137 0.465,-0.19 0.975,-0.293 1.508,-0.293 2.214,0 4,1.791 4,4.016 0,2.225 -1.901,4.011 -4,4.011 h -3.965 c -4.971,0 -9,-4.029 -9,-9 V 17.039 c -10e-4,-2.485 2.012,-4.498 4.497,-4.498 z"
   id="path4"
   inkscape:label="l"
   sodipodi:nodetypes="sssccssssscs" /><path
   d="m 345.163,28.296 c -3.236,0 -5.993,0.422 -8.056,0.889 -2.24,0.508 -3.572,2.813 -2.884,5.004 0.615,1.956 2.627,3.093 4.628,2.645 1.321,-0.296 2.88,-0.541 4.425,-0.541 3.971,0 6.166,1.652 6.166,5.292 v 9.5825 c 0,1.575 -1.32,2.853 -2.896,2.853 h -7.336 c -1.317,0 -2.23,-1.243 -1.927,-2.456 0.03,-0.121 1.751,-5.154 1.799,-5.291 0.724,-2.034 -0.003,-4.391 -1.903,-5.471 -2.318,-1.318 -5.458,-0.267 -6.318,2.229 0,0 -1.92,5.767 -2.005,6.011 -2.216,6.343 2.48,13.2545 9.372,13.2545 h 7.997 c 6.681,0 12.097,-5.5155 12.097,-12.1965 V 41.579 c 10e-4,-6.905 -5.386,-13.283 -13.159,-13.283 z"
   id="path5"
   inkscape:label="a"
   sodipodi:nodetypes="scccssssscccccssscs" /><path
   d="m 312.372,51.519 c 0.295,0.934 1.617,0.935 1.913,0.001 l 6.355,-20.081 c 0.757,-2.387 3.273,-3.698 5.622,-2.927 2.347,0.771 3.635,3.332 2.877,5.72 l -7.032,21.455 c -2.777,8.474 -14.765,8.473 -17.542,-10e-4 l -7.03,-21.454 c -0.758,-2.388 0.531,-4.949 2.877,-5.72 2.349,-0.771 4.864,0.54 5.622,2.927 z"
   id="path8"
   inkscape:label="v" /><path
   d="m 269.756,33.155 c 0,-0.275 0.023,-0.556 0.071,-0.841 0.342,-2.02 2.024,-3.641 4.053,-3.924 2.381,-0.332 4.02,0.943 4.971,2.563 l 0.243,0.442 c 0.354,0.588 0.849,1.048 1.698,1.048 0.322,0 0.598,-0.069 0.838,-0.187 l 6.532,-3.066 c 1.923,-0.895 4.211,-0.141 5.224,1.723 v 0 c 1.094,2.013 0.285,4.532 -1.777,5.531 l -10.845,5.253 c -1.21,0.584 -1.98,1.809 -1.98,3.153 v 12.672 c 0,2.495 -2.022,4.517 -4.517,4.517 v 0 c -2.495,0 -4.517,-2.022 -4.517,-4.517 V 34.086 Z"
   id="path10"
   inkscape:label="r" />
<use
   x="0"
   y="0"
   xlink:href="#path6"
   id="use14"
   transform="translate(112.444)"
   inkscape:label="e" /><path
   d="m 229.637,36.785 c 2.214,0 4.009,-1.795 4.009,-4.009 v 0 c 0,-2.22 -1.816,-4.036 -4.036,-4.036 h -6.945 c -0.552,0 -1,-0.448 -1,-1 V 17.236 c 0,-2.349 -1.717,-4.447 -4.056,-4.67 -2.683,-0.256 -4.94,1.847 -4.94,4.477 v 10.698 c 0,0.552 -0.448,1 -1,1 h -2.983 c -2.214,0 -4.008,1.795 -4.008,4.009 v 0 c 0,2.215 1.796,4.036 4.011,4.036 l 2.973,-0.019 c 0.555,-0.003 1.006,0.445 1.006,1 v 15.4205 c 0,4.971 4.029,9 9,9 h 3.965 c 2.099,0 4,-1.786 4,-4.011 0,-2.225 -1.785,-4.016 -4,-4.016 -0.533,0 -1.043,0.103 -1.508,0.293 -0.277,0.123 -0.593,0.175 -0.924,0.137 -0.897,-0.103 -1.538,-0.932 -1.538,-1.834 V 37.786 c 0,-0.552 0.448,-1 1,-1 z"
   id="path9"
   inkscape:label="t"
   sodipodi:nodetypes="csssssscssssssccsssssscssscc" /><path
   d="m 203.378,41.82 c 0,-8.456 -6.645,-13.561 -15.923,-13.561 -0.035,0 -1.902,0 -4.423,0.001 -6.347,10e-4 -11.339,4.683 -11.339,11.03 l -0.018,18.272 c 0,2.473 2.035,4.478 4.509,4.478 2.473,0 4.478,-2.005 4.478,-4.478 l -0.017,-18.645 c 0,-1.45 1.176,-2.626 2.626,-2.626 h 4.213 c 4.433,0 6.954,2.286 6.954,6.108 l 0.004,15.163 c 0,2.473 2.005,4.478 4.478,4.478 v 0 c 2.473,0 4.478,-2.005 4.478,-4.478 z"
   id="path12"
   style="enable-background:new 0 0 390 75"
   inkscape:label="n" /><path
   d="m 167.293,17.491 c 0,-2.729 -2.253,-4.932 -5.001,-4.849 -2.655,0.08 -4.702,2.396 -4.702,5.053 v 39.513 c 0,2.679 2.172,4.852 4.852,4.852 v 0 c 2.679,0 4.852,-2.172 4.852,-4.852 V 17.491 Z"
   id="path1"
   style="enable-background:new 0 0 390 75"
   inkscape:label="I" /><path
   d="m 145.64,53.69 c -1.356,0.304 -4.232,0.555 -6.502,0.555 -5.835,0 -7.332,-2.719 -7.332,-6.036 v -6.533 c 0,-2.824 2.311,-5.135 5.135,-5.135 h 5.334 c 1.118,0 2.025,0.906 2.025,2.025 0,1.119 -0.906,2.025 -2.025,2.025 h -1.951 c -2.516,0 -4.556,2.04 -4.556,4.556 0,2.516 2.04,4.556 4.556,4.556 h 2.136 c 5.89,0 10.943,-4.608 11.051,-10.498 0.11,-6 -4.721,-10.899 -10.696,-10.899 h -6.901 c -7.373,0 -13.35,5.977 -13.35,13.35 v 7.163 c 0,7.683 5.682,13.64 15.216,13.64 3.97,0 7.532,-0.433 9.651,-0.913 2.301,-0.522 3.668,-2.888 2.961,-5.139 -0.631,-2.009 -2.697,-3.177 -4.752,-2.717 z"
   id="path6"
   style="enable-background:new 0 0 390 75"
   inkscape:label="e" /><path
   d="m 118.183,41.854 c 0,-8.452 -6.639,-13.556 -15.911,-13.561 -0.174,0 -0.38,0 -0.646,0 -2.734,0 -5.193,0.874 -7.11,2.372 -0.646,0.505 -1.517,0.578 -2.214,0.148 -2.652,-1.633 -6.037,-2.52 -9.883,-2.521 -0.194,0 -0.649,0 -1.639,0 -6.347,10e-4 -11.235,4.683 -11.235,11.03 L 69.54,57.369 c 0,2.339 1.71,4.428 4.038,4.65 2.671,0.255 4.918,-1.839 4.918,-4.457 V 38.95 c 0,-1.45 1.176,-2.626 2.626,-2.626 h 1.318 c 4.433,0 6.954,2.286 6.954,6.108 v 14.937 c 0,2.339 1.708,4.428 4.037,4.65 2.671,0.255 4.918,-1.839 4.918,-4.457 L 98.343,38.95 c 0,-1.45 1.176,-2.626 2.626,-2.626 h 1.318 c 4.433,0 6.954,2.286 6.954,6.108 v 15.104 c 0,2.339 1.714,4.261 4.042,4.483 2.671,0.255 4.918,-1.839 4.918,-4.457 z"
   id="path11"
   style="enable-background:new 0 0 390 75"
   inkscape:label="m" /><path
   id="path3"
   d="m 53.447266,16.373047 c -2.46766,1.12e-4 -4.467764,2.00109 -4.466797,4.46875 1.12e-4,2.466897 1.9999,4.466685 4.466797,4.466797 2.466897,-1.13e-4 4.466684,-1.9999 4.466796,-4.466797 9.67e-4,-2.46766 -1.999136,-4.468637 -4.466796,-4.46875 z m -0.002,11.878906 c -2.484,0 -4.498046,2.012094 -4.498046,4.496094 v 20.439656 c 0,4.971 4.029,9 9,9 h 3.964843 c 2.099,0 4,-1.784766 4,-4.009765 0,-2.225001 -1.783047,-4.015626 -3.998047,-4.015626 -0.533,0 -1.042812,0.102969 -1.507812,0.292969 -0.277,0.123 -0.592828,0.174719 -0.923828,0.136719 -0.897,-0.103 -1.539063,-0.931984 -1.539063,-1.833984 V 32.748047 c 0,-2.484 -2.014047,-4.496094 -4.498047,-4.496094 z"
   inkscape:label="i"
   sodipodi:nodetypes="cccccsssssssccsss" /><path
   d="M 42.25,13.125 H 14.57 c -2.341,0 -4.239,1.898 -4.239,4.239 0,2.341 1.898,4.239 4.239,4.239 h 6.403 l 0.013,0.062 c 1.418,0 2.568,1.15 2.568,2.568 h 0.005 V 57.21 c 0,2.679 2.172,4.852 4.852,4.852 2.68,0 4.852,-2.172 4.852,-4.852 V 24.233 h 0.005 c 0,-1.418 1.15,-2.568 2.568,-2.568 l 0.013,-0.062 h 6.403 c 2.341,0 4.239,-1.898 4.239,-4.239 0,-2.341 -1.9,-4.239 -4.241,-4.239 z"
   id="path2"
   inkscape:label="T"
   style="enable-background:new 0 0 390 75" /></svg>
