<?xml version="1.0" encoding="UTF-8" standalone="no"?>
<svg viewBox="0 0 305 180" xml:space="preserve" version="1.1" xmlns="http://www.w3.org/2000/svg" xmlns:xlink="http://www.w3.org/1999/xlink">
    <style>
        .s1{stroke-width:1.3}.a1{fill:none;stroke:gray}.a2,.a3{font-size:15px;font-family:monospace}.a3{font-weight:700}.a5,.a6,.a8{text-align:center}.a5{font-size:8px;font-family:monospace}.a6,.a8{font-size:12px}.a6,.a7,.a8{font-family:monospace}.a7{font-size:10px;fill:#666}.a9{enable-background:new 0 0 306 227;fill:none;stroke:gray}
    </style>
    <g transform="translate(0 -40)">
        <path class="a1 s1" d="M146.234 182.375H45.567A4.567 4.567 0 0 1 41 177.808V83.192a4.567 4.567 0 0 1 4.567-4.567h100.667a4.567 4.567 0 0 1 4.567 4.567v94.616a4.567 4.567 0 0 1-4.567 4.567z"/>
        <path class="a1 s1" d="M233.626 62.625v3.75a3.25 3.25 0 0 1-3.25 3.25H44.25a3.25 3.25 0 0 1-3.25-3.25v-3.75m220.75-18h-18.5a3.25 3.25 0 0 0-3.25 3.25v18.5a3.25 3.25 0 0 0 3.25 3.25h18.5a3.25 3.25 0 0 0 3.25-3.25v-18.5a3.25 3.25 0 0 0-3.25-3.25z"/>
        <text class="a2" x="47.8" y="62.624">04/2025</text>
        <text class="a3" x="243.708" y="62.664">•</text>
        <text class="a3" x="252.5" y="62.664">•</text>
        <g id="b">
            <text class="a5 s1" x="69" y="100.63">▲</text>
            <text class="a5 s1" x="69" y="164.249">▼</text>
        </g>
        <use xlink:href="#b" transform="translate(49.5)"/>
        <text class="a6 s1" x="64" y="141.788">04</text>
        <text class="a7 s1" x="109.5" y="125.5">YEAR</text>
        <text class="a7 s1" x="56.293" y="125.5">MONTH</text>
        <text class="a8 s1" x="106.5" y="141.788">2025</text>
        <path id="a" class="a9 s1" d="M93.9 118.02v25.09m-45-35.497V89.75a3.25 3.25 0 0 1 3.25-3.25h38.5a3.25 3.25 0 0 1 3.25 3.25v17.863m-45 35.497v-25.22m45 35.735v17.625a3.25 3.25 0 0 1-3.25 3.25h-38.5a3.25 3.25 0 0 1-3.25-3.25v-17.625"/>
        <use xlink:href="#a" transform="translate(49.5)"/>
    </g>
</svg>
