<?xml version="1.0" encoding="UTF-8" standalone="no"?>
<svg
   viewBox="0 0 305 180"
   xml:space="preserve"
   version="1.1"
   xmlns="http://www.w3.org/2000/svg"
   xmlns:svg="http://www.w3.org/2000/svg">
   <style>
      .s1 {
        stroke-width: 1.3;
      }
      .a1{
          fill: none;
          stroke: #808080;
      }
      .a2 {
          font-size: 15px;
          font-family: monospace;
      }
      .a3 {
          font-size: 15px;
          font-family: monospace;
          font-weight: bold;
      }
      .a4 {
          font-weight: 700;
          font-size: 10px;
          font-family: monospace;
          text-align: center;
          fill: #4d4d4d;
      }
      .a5 {
          font-size: 8px;
          font-family: monospace;
          text-align: center;
      }
      .a6 {
          font-size: 12px;
          font-family: monospace;
          text-align: center;
      }
      .a7 {
          font-size: 10px;
          font-family: monospace;
          fill: #666666;
      }
      .a8 {
          font-style: normal;
          font-variant: normal;
          font-weight: normal;
          font-stretch: normal;
          font-size: 12px;
          font-family: monospace;
          font-variant-ligatures: normal;
          font-variant-caps: normal;
          font-variant-numeric: normal;
          font-variant-east-asian: normal;
          text-align: center
      }
      .a9 {
          enable-background: new 0 0 306 227;
          fill: none;
          stroke: gray;
      }
   </style>

   <g
   id="g39"
   transform="translate(0,-40)">

  <path class="a1 s1" d="M 196.234,182.375 H 45.567 C 43.044716,182.375 41,180.33028 41,177.808 V 83.192 c 0,-2.522284 2.044716,-4.567 4.567,-4.567 h 150.667 c 2.52228,0 4.567,2.044716 4.567,4.567 v 94.616 c 0,2.52228 -2.04472,4.567 -4.567,4.567 z"/>
      <g>
          <path class="a1 s1" d="M233.626 62.625v3.75a3.25 3.25 0 0 1-3.25 3.25H44.25a3.25 3.25 0 0 1-3.25-3.25v-3.75m220.75-18h-18.5a3.25 3.25 0 0 0-3.25 3.25v18.5a3.25 3.25 0 0 0 3.25 3.25h18.5a3.25 3.25 0 0 0 3.25-3.25v-18.5a3.25 3.25 0 0 0-3.25-3.25z"/>
          <g>
              <text class="a2" x="47.8" y="62.624">0</text>
              <text class="a2" x="56.774" y="62.624">1</text>
              <text class="a2" x="65.748" y="62.624">/</text>
              <text class="a2" x="74.721" y="62.624">0</text>
              <text class="a2" x="83.695" y="62.624">4</text>
              <text class="a2" x="92.669" y="62.624">/</text>
              <text class="a2" x="101.643" y="62.624">2</text>
              <text class="a2" x="110.617" y="62.624">0</text>
              <text class="a2" x="119.59" y="62.624">2</text>
              <text class="a2" x="128.564" y="62.624">5</text>
          </g>
          <g>
              <text class="a3" x="243.708" y="62.664">•</text>
              <text class="a3" x="252.5" y="62.664">•</text>
          </g>
      </g>
      <g>
          <text class="a4 s1" x="63.074" y="125.429">T</text>
          <text class="a4 s1" x="68.693" y="125.429">U</text>
          <text class="a4 s1" x="74.312" y="125.429">E</text>
      </g>
      <g>
          <text class="a5 s1" transform="translate(-163.669 -16.448)" x="232.592" y="117.078">▲</text>
          <text class="a5 s1" transform="translate(-163.669 47.552)" x="232.881" y="116.697">▼</text>
      </g>
      <g>
          <text class="a6 s1" x="64.193" y="141.788">0</text>
          <text class="a6 s1" x="71.418" y="141.788">1</text>
      </g>
      <g>
          <text class="a5 s1" transform="translate(-114.39 47.552)" x="232.881" y="116.697">▼</text>
          <text class="a5 s1" transform="translate(-114.39 -16.448)" x="232.881" y="116.697">▲</text>
      </g>
      <g>
          <text class="a4 s1" x="112.396" y="125.429">A</text>
          <text class="a4 s1" x="118.015" y="125.429">P</text>
          <text class="a4 s1" x="123.634" y="125.429">R</text>
      </g>
      <g>
          <text class="a6 s1" x="113.573" y="141.788">0</text>
          <text class="a6 s1" x="120.797" y="141.788">4</text>
      </g>
      <g>
          <text class="a5 s1" transform="translate(-64.89 47.552)" x="232.881" y="116.697">▼</text>
          <text class="a5 s1" transform="translate(-64.89 -16.448)" x="232.881" y="116.697">▲</text>
      </g>
      <g>
          <text class="a7 s1" x="159.077" y="125.429">Y</text>
          <text class="a7 s1" x="164.697" y="125.429">E</text>
          <text class="a7 s1" x="170.316" y="125.429">A</text>
          <text class="a7 s1" x="175.935" y="125.429">R</text>
      </g>
      <g>
          <text class="a8 s1" x="155.371" y="141.788">2</text>
          <text class="a8 s1" x="163.005" y="141.788">0</text>
          <text class="a8 s1" x="170.64" y="141.788">2</text>
          <text class="a8 s1" x="178.275" y="141.788">5</text>
      </g>
      <path class="a9 s1" d="M93.9 118.02v25.09m-45-35.497V89.75a3.25 3.25 0 0 1 3.25-3.25h38.5a3.25 3.25 0 0 1 3.25 3.25v17.863m-45 35.497v-25.22m45 35.735v17.625a3.25 3.25 0 0 1-3.25 3.25h-38.5a3.25 3.25 0 0 1-3.25-3.25v-17.625"/>
      <path class="a9 s1" d="M143.4 118.02v25.09m-45-35.497V89.75a3.25 3.25 0 0 1 3.25-3.25h38.5a3.25 3.25 0 0 1 3.25 3.25v17.863m-45 35.497v-25.22m45 35.735v17.625a3.25 3.25 0 0 1-3.25 3.25h-38.5a3.25 3.25 0 0 1-3.25-3.25v-17.625"/>
      <path class="a1 s1" d="M192.9 118.02v25.09m-45-35.497V89.75a3.25 3.25 0 0 1 3.25-3.25h38.5a3.25 3.25 0 0 1 3.25 3.25v17.863m-45 35.497v-25.22m45 35.735v17.625a3.25 3.25 0 0 1-3.25 3.25h-38.5a3.25 3.25 0 0 1-3.25-3.25v-17.625"/>
    </g>
</svg>